<svg width="10" height="12" viewBox="0 0 10 12" fill="none" xmlns="http://www.w3.org/2000/svg">
<path d="M6.44346 1.80469C6.83914 1.3125 7.12176 0.65625 7.03698 0C6.44346 0.0273438 5.7369 0.382812 5.31296 0.847656C4.94555 1.25781 4.6064 1.94141 4.69119 2.57031C5.36949 2.65234 6.01953 2.29688 6.44346 1.80469ZM7.03698 2.73438C6.07605 2.67969 5.25644 3.25391 4.80424 3.25391C4.35204 3.25391 3.64547 2.76172 2.88239 2.76172C1.8932 2.78906 0.988797 3.30859 0.480072 4.18359C-0.537379 5.90625 0.197446 8.44922 1.2149 9.84375C1.69536 10.5273 2.28887 11.293 3.05196 11.2656C3.78679 11.2383 4.06941 10.8008 4.94555 10.8008C5.82169 10.8008 6.07605 11.2656 6.8674 11.2383C7.65875 11.2109 8.16748 10.5547 8.64794 9.84375C9.21319 9.05078 9.43929 8.28516 9.43929 8.25781C9.41103 8.23047 7.88485 7.68359 7.88485 5.98828C7.85659 4.56641 9.07188 3.88281 9.1284 3.85547C8.47836 2.87109 7.40439 2.76172 7.03698 2.73438Z" fill="white"/>
</svg>
